# xmcd
# 
# Track frame offsets:
#     182
#     9875
#     23012
#     32687
#     42042
#     43225
#     53267
#     56822
#     65215
#     77862
#     80450
#     92817
#     93450
#     105480
#     108000
#     119155
#     129600
#     140285
#     146360
# 
# Disc length: 2087
# 
# Revision: 34
# Processed by: cddbd v1.5.2PL0 Copyright (c) Steve Scherf et al.
# Submitted via: fre:ac v1.1beta1pre4
# 
DISCID=f7082513
DTITLE=Various Artist - Good Morning Vietnam [Soundtrack]
DYEAR=1987
DGENRE=Soundtrack
TTITLE0=Good Morning Vietnam (ft. Robin Williams)
TTITLE1=Nowhere To Run (ft. Martha Reeves and The Vandellas)
TTITLE2=I Get Around (ft. The Beach Boys)
TTITLE3=Game Of Love (ft. Wayne Fontana and The Mindbenders)
TTITLE4=Bob Cramer - Artillery (ft. Robin Williams)
TTITLE5=Sugar and Spice (ft. The Searchers)
TTITLE6=Crete Gomer Lyndon (ft. Robin Williams)
TTITLE7=Liar, Liar (ft. The Castaways)
TTITLE8=The Warmth Of The Sun (ft. The Beach Boys)
TTITLE9=Mr. Leo (ft. Robin Williams)
TTITLE10=I Got You [I Feel Good] (ft. James Brown)
TTITLE11=Lawrence Welk (ft. Robin Williams)
TTITLE12=Baby Please Don't Go (ft. Them)
TTITLE13=Nixon (ft. Robin Williams)
TTITLE14=Danger Heartbreak Dead Ahead (ft. The Marvelettes)
TTITLE15=Five O'Clock World (ft. The Vogues)
TTITLE16=California Sun (ft. The Rivieras)
TTITLE17=Here's The News (ft. Robin Williams)
TTITLE18=What A Wonderful World (ft. Louis Armstrong)
EXTD=
EXTT0=
EXTT1=
EXTT2=
EXTT3=
EXTT4=
EXTT5=
EXTT6=
EXTT7=
EXTT8=
EXTT9=
EXTT10=
EXTT11=
EXTT12=
EXTT13=
EXTT14=
EXTT15=
EXTT16=
EXTT17=
EXTT18=
PLAYORDER=
